TITLE ""
FILE "P1Q_t_1320-1329.mp3" MP3
  TRACK 01 AUDIO
    TITLE "P1Q_t_1320-1329_01"
    INDEX 01 00:00:00
  TRACK 02 AUDIO
    TITLE "P1Q_t_1320-1329_02"
    INDEX 01 00:01:18
  TRACK 03 AUDIO
    TITLE "P1Q_t_1320-1329_03"
    INDEX 01 00:01:37
  TRACK 04 AUDIO
    TITLE "P1Q_t_1320-1329_04"
    INDEX 01 00:06:17
  TRACK 05 AUDIO
    TITLE "P1Q_t_1320-1329_05"
    INDEX 01 00:06:38
  TRACK 06 AUDIO
    TITLE "P1Q_t_1320-1329_06"
    INDEX 01 00:11:32
  TRACK 07 AUDIO
    TITLE "P1Q_t_1320-1329_07"
    INDEX 01 00:12:02
  TRACK 08 AUDIO
    TITLE "P1Q_t_1320-1329_08"
    INDEX 01 00:13:09
  TRACK 09 AUDIO
    TITLE "P1Q_t_1320-1329_09"
    INDEX 01 00:13:29
  TRACK 10 AUDIO
    TITLE "P1Q_t_1320-1329_10"
    INDEX 01 00:17:03
  TRACK 11 AUDIO
    TITLE "P1Q_t_1320-1329_11"
    INDEX 01 00:17:22
  TRACK 12 AUDIO
    TITLE "P1Q_t_1320-1329_12"
    INDEX 01 00:21:07
  TRACK 13 AUDIO
    TITLE "P1Q_t_1320-1329_13"
    INDEX 01 00:21:52
  TRACK 14 AUDIO
    TITLE "P1Q_t_1320-1329_14"
    INDEX 01 00:23:05
  TRACK 15 AUDIO
    TITLE "P1Q_t_1320-1329_15"
    INDEX 01 00:23:27
  TRACK 16 AUDIO
    TITLE "P1Q_t_1320-1329_16"
    INDEX 01 00:28:40
  TRACK 17 AUDIO
    TITLE "P1Q_t_1320-1329_17"
    INDEX 01 00:28:60
  TRACK 18 AUDIO
    TITLE "P1Q_t_1320-1329_18"
    INDEX 01 00:34:05
  TRACK 19 AUDIO
    TITLE "P1Q_t_1320-1329_19"
    INDEX 01 00:34:52
  TRACK 20 AUDIO
    TITLE "P1Q_t_1320-1329_20"
    INDEX 01 00:35:65
  TRACK 21 AUDIO
    TITLE "P1Q_t_1320-1329_21"
    INDEX 01 00:36:12
  TRACK 22 AUDIO
    TITLE "P1Q_t_1320-1329_22"
    INDEX 01 00:39:26
  TRACK 23 AUDIO
    TITLE "P1Q_t_1320-1329_23"
    INDEX 01 00:39:46
  TRACK 24 AUDIO
    TITLE "P1Q_t_1320-1329_24"
    INDEX 01 00:43:67
  TRACK 25 AUDIO
    TITLE "P1Q_t_1320-1329_25"
    INDEX 01 00:44:37
  TRACK 26 AUDIO
    TITLE "P1Q_t_1320-1329_26"
    INDEX 01 00:45:46
  TRACK 27 AUDIO
    TITLE "P1Q_t_1320-1329_27"
    INDEX 01 00:45:66
  TRACK 28 AUDIO
    TITLE "P1Q_t_1320-1329_28"
    INDEX 01 00:50:22
  TRACK 29 AUDIO
    TITLE "P1Q_t_1320-1329_29"
    INDEX 01 00:50:42
  TRACK 30 AUDIO
    TITLE "P1Q_t_1320-1329_30"
    INDEX 01 00:55:25
  TRACK 31 AUDIO
    TITLE "P1Q_t_1320-1329_31"
    INDEX 01 00:55:70
  TRACK 32 AUDIO
    TITLE "P1Q_t_1320-1329_32"
    INDEX 01 00:57:30
  TRACK 33 AUDIO
    TITLE "P1Q_t_1320-1329_33"
    INDEX 01 00:57:49
  TRACK 34 AUDIO
    TITLE "P1Q_t_1320-1329_34"
    INDEX 01 01:00:36
  TRACK 35 AUDIO
    TITLE "P1Q_t_1320-1329_35"
    INDEX 01 01:00:58
  TRACK 36 AUDIO
    TITLE "P1Q_t_1320-1329_36"
    INDEX 01 01:06:31
  TRACK 37 AUDIO
    TITLE "P1Q_t_1320-1329_37"
    INDEX 01 01:07:05
  TRACK 38 AUDIO
    TITLE "P1Q_t_1320-1329_38"
    INDEX 01 01:08:28
  TRACK 39 AUDIO
    TITLE "P1Q_t_1320-1329_39"
    INDEX 01 01:08:47
  TRACK 40 AUDIO
    TITLE "P1Q_t_1320-1329_40"
    INDEX 01 01:12:33
  TRACK 41 AUDIO
    TITLE "P1Q_t_1320-1329_41"
    INDEX 01 01:12:55
  TRACK 42 AUDIO
    TITLE "P1Q_t_1320-1329_42"
    INDEX 01 01:16:27
  TRACK 43 AUDIO
    TITLE "P1Q_t_1320-1329_43"
    INDEX 01 01:16:74
  TRACK 44 AUDIO
    TITLE "P1Q_t_1320-1329_44"
    INDEX 01 01:18:10
  TRACK 45 AUDIO
    TITLE "P1Q_t_1320-1329_45"
    INDEX 01 01:18:30
  TRACK 46 AUDIO
    TITLE "P1Q_t_1320-1329_46"
    INDEX 01 01:24:03
  TRACK 47 AUDIO
    TITLE "P1Q_t_1320-1329_47"
    INDEX 01 01:24:23
  TRACK 48 AUDIO
    TITLE "P1Q_t_1320-1329_48"
    INDEX 01 01:29:14
  TRACK 49 AUDIO
    TITLE "P1Q_t_1320-1329_49"
    INDEX 01 01:29:57
  TRACK 50 AUDIO
    TITLE "P1Q_t_1320-1329_50"
    INDEX 01 01:30:72
  TRACK 51 AUDIO
    TITLE "P1Q_t_1320-1329_51"
    INDEX 01 01:31:17
  TRACK 52 AUDIO
    TITLE "P1Q_t_1320-1329_52"
    INDEX 01 01:34:47
  TRACK 53 AUDIO
    TITLE "P1Q_t_1320-1329_53"
    INDEX 01 01:34:66
  TRACK 54 AUDIO
    TITLE "P1Q_t_1320-1329_54"
    INDEX 01 01:40:10
  TRACK 55 AUDIO
    TITLE "P1Q_t_1320-1329_55"
    INDEX 01 01:40:67
  TRACK 56 AUDIO
    TITLE "P1Q_t_1320-1329_56"
    INDEX 01 01:42:05
  TRACK 57 AUDIO
    TITLE "P1Q_t_1320-1329_57"
    INDEX 01 01:42:27
  TRACK 58 AUDIO
    TITLE "P1Q_t_1320-1329_58"
    INDEX 01 01:44:63
  TRACK 59 AUDIO
    TITLE "P1Q_t_1320-1329_59"
    INDEX 01 01:45:07
  TRACK 60 AUDIO
    TITLE "P1Q_t_1320-1329_60"
    INDEX 01 01:51:27
